<mxfile host="Electron" modified="2024-02-15T08:42:05.709Z" agent="Mozilla/5.0 (Windows NT 10.0; Win64; x64) AppleWebKit/537.36 (KHTML, like Gecko) draw.io/21.2.8 Chrome/112.0.5615.165 Electron/24.2.0 Safari/537.36" etag="Hq2dVlcOdFbAG8-ZOdTr" version="21.2.8" type="device">
  <diagram name="Page-1" id="2XWkQP5S-hDbL94sL5Vg">
    <mxGraphModel dx="2058" dy="1180" grid="1" gridSize="10" guides="1" tooltips="1" connect="1" arrows="1" fold="1" page="1" pageScale="1" pageWidth="3300" pageHeight="4681" background="#999999" math="0" shadow="0">
      <root>
        <mxCell id="0" />
        <mxCell id="1" parent="0" />
        <mxCell id="APLwThIm-aDqV8bCMrbt-1" value="Slider" style="rounded=0;whiteSpace=wrap;html=1;fontSize=25;fillColor=#dae8fc;strokeColor=#6c8ebf;" parent="1" vertex="1">
          <mxGeometry x="1323" y="140" width="657" height="60" as="geometry" />
        </mxCell>
        <mxCell id="X8rtpnQfpyjJ-HAYCxEG-1" value="" style="shape=image;verticalLabelPosition=bottom;labelBackgroundColor=default;verticalAlign=top;aspect=fixed;imageAspect=0;image=data:image/png,iVBORw0KGgoAAAANSUhEUgAAAo8AAADVCAYAAAA2GhrDAAAAAXNSR0IArs4c6QAAAARnQU1BAACxjwv8YQUAAAAJcEhZcwAADsMAAA7DAcdvqGQAABruSURBVHhe7d19rB1pXcDx55zb2y4tbbfdFmp42fbe27fb5VVlDS8u7C4kkqBG/zAKEggi/GEVSIgvi4gru6CbiIokxoSgyEL8A2NCokbbIgFMgICCcDFbtu3iwna3W/tK23tv2+vze55n5syZM2fmOfNy5syZ76dn5nnm/e2ZmV+fmXNu544XvHBNRayt9XVaut9gX90vYVTkkHNHsvtRH0pfuo5LAVShljOsM13ntd2cwW2yvRP6R/qFwWNlQWOBCDP/lKhODUelQQWBMgtMrsHb4QSrZWUbtYdaodARGSHYTQokba/BeUgQ2Tl0xwuS73cDgWNC0JgYXDZdDVuUc5HTt+/brkFHlMJXHf/rPUbGzp00tRyR3AudrvJjtiYWHMaDyKRxxGDwmBAQDtRKjhQ0FrjLFJg0rxoWWYN27Nh2HEsAk2zwtjsGY19oLVvZKLn3UKFd6zexGWvEILI/eIwFhelBo8vpJDZWw+XcmgI7Ybr2XxVq2EMtOSiUPdSl/1Y14WpZ2UbtobErtHdyTzw9x8RsSa9l2M7+bYwGkdHhveAxFhgOxo1BD5fqJDbKEH5jJco5aYEl1mS8G9q8/dMWDToyFKLJ03/NRyJ2Uppa9k7uhTbrWE7eZtoZm3avZUS/GCOiAaQI33nsr2GMBY6xoNJ9nHj3pCiwRjknnbx9kGb8+6eIZu3bOrCH0Cb9NzYMyr2Hxj9ho8RiqhFN3j6KBoW9bLTb5sVAALl46I7Inac/cIzXNvY6owGl6O/qkzIoS4FJ84vugBHUsq61yLmlLdlB7SkHAHz0brdjlHuhtazt2NWze/JNXN0iewNNzgWKA0GiaQ0OiwSPkcCxLzjUOfsx+f7YKt6dJHOE4XJOWmCJBbRlO9uiQXu3YQWBcluN3uV+ytWyoa3Zu2OXe88WOiTjP56TuJ1mqAsMRRAcuiRo9Y0XjiPBY99j61jgGA7SmXWzs2rTpo1q/ex6tX7DejUzM1PpnSC6JkjQqN0z/pWl9ACom73ljls9S82lQataBxfKVUPP+saNG2p5eVmtrKyqK1euqOurq7q/XWYQKIZt1190Di4e6t1jUwLHzZs3q623blVnz11RV5dX1bXl62r1+g03AhDVK2BWWhgXHzeJTO8zXgXSVl0Eq5U1nq+kzSxr3oGy1xmD0oprsN99xolLm2aoaTvQaTuwKdtaxnpWsa1V7b/R5purmA9oU1nIb3bdOnXLhlndrFc7tm9V589fUJcuXtQHwR6FYQFkL3gcEjhKreSOHTt0nxn1xJmLamWVgBE+bAEbFD1Rho0zQdLO67TVz5rOd75p46EZguM57FgmlaNRxs00jYVItmmUHTdpyljPKra1qv032nxzFfMBbSoL5Vg/u07t2rldrZvpqKeeOuP66uNhDog9KjbbUV3TlRg4SrqmtmzerHPr1GM/PEfgiBJI0Quaikj5TWryGLaaWas/bBODfmnTF11nTJasYxk93j7jQss6ATE6Clc9Jqcsr6xeV9//4VPq+g37tNm+0tiLCcO27mGDx4DuEYwkqVRnyqPqJ85cMIMBf7agjZUsMm2xWcOrEL0u1HmN4F6LkBSGtALR1MJSwzVnarDv6jVZ59zpM/+nbt261cSA0ZgwWk66ElnaziDVOZfZ9MxN5h1HahyBmN455C/PNGUgcJwuhcqRb2Gg0FSnrgtB21CG85IayKfPXVAbN2003UFMGAaSut2reQx6RsaSb1XLl2OARpBrRdb1YpTriZwK7nRIlDVcxIcH02RNV6ZxLw/lC8q2TxkfEEwwyoRNLDAj7xhMII7iZLi2vGJiwCByDB5hB5eG/nceXc+gW36OR75VDTSKXH2CJsr3qiSFPzgXfAwbf5R5AEmSynFUUPaGlcFQ0kx8+6E8ZV0UyprPOPiva/mlj/Kc17XlVbVhwwZ79FwAKR1Bd+fAwYMuoAweW0vto013375bfed7p03fYbZsfoaaXdf/6qSP1es31cVLV10XptOEnLhSnn1XxZ4ExciyypgPkFVu4+XM+5RLOymmofBO6jaUtV5lb1+V+8tv3t5FN5dJLQ9Rk7eOiwu3q1OPndK5TviN6zDdf+CgXuMgYNQ5l5F09+7b1dL3njTdw3zkoT9S8wvzritZ8Ee2f3D66XA5P7p4Vr3nvb+vut0Z2wNTqNrLgbfgnPRZnWBcYBJkldl4eS3tlGv6iTCp61/WepW9fVXuL795V3u3mNTyEDV563hw4fnq1KnHIoGjPUqSuMfWpq1Tmwnfe/Rw69bN6tCBvanN4v4F07z2rp9Sr3u1bXbuuE0v56abC1ABKcbRohzvjvMv9sBkyirj3qq9lbdTWRcYLlRF3f8H96nHjn9bPX7iu4mNDJNxJs2Xj/2LevmdL3Ndg2TYl47+s+sqy2DlohRBW/Ooe5heLg1G8Kl5/OTH/0I997nz6h+/eFx1umu2mZHmpnr9ixbUrmdvVZcv/8iMu2nTJvXZL580+T2br6g3veWdamZm1nQnedtbfkXd//7fdl1KPWfuRSb93Gf/Tn3zv7+j3veBD6tvf/0L6mtf/y/11l//LTMsKjoe6jCmG5Arz8BUyjqNhpX/Uk6/Jp5ck7rOZaxXVdtW5T7zm3e1d4v+dZDg8LWv/3l1+snk+Gb7tm3qC0f+Sd2+9w7XZxyy95MEhx/9s4fU4Xe9V/3HV77q+lppw/KyNY/BY2t7hCSVXDcMHHU7SG2i0+xtkVnqmc2okxcuq1OXLqnHrlxU/7t8QT2+el6trt7Us9GN+xeYWZ/90z93/uRL1bsPv8MEjNL8wi+9VX3wA7/jhvbc8eN3JQaOqJIUnaSmJFJUok2arOFFVLR5AOpUxwld5YWqDO26wM3MzJjA8eLFS4nNqce+b8aZNBIUSnAoQWK0BrKKwNEI78G65SoVJS+50b/pEnPjpn30vPO2Daqz/rq6cP2iOnPtrHryqv3TNp1gec4t266pjTuuuK7h7jh0QJ089X3XpdRXvvYNahAnXkUXZSlDsXIEtEZW2R92ynHOAFMnHkBWFjhmKBw8Bten7z75uDp5/gl1/vo5dVVdUiudy6b/mruw2YpOpTbdelltfKYdlubjf/Np9dKXvFB94q//3PVJ9qVjnzOPtwM/OPFN08jj7LhgmDTBNDJ/aaSfPOZGEAAOuyMN6x+VNn0B8SCy6ptjsLz4coFx8j3lKlHZjGvGCd2P/dEk0QCyjsBRFA4eg0vLVR0szj5jVc3esqrWbVhRs7oxdJkMAkdxYOfz1MKtc64rnTyu3rsw1xfspZGA8ROf/IyZ7m3vfLcJPgMyTB59B4/B5ZF44HX3vtr0e8Mv/qrr01bxG4V0R/vFh1fA5xom43CtQxsFZd/3HCjlPBnDeT9WpeyUKVJsf/zgxHcymiXTYLp0w2JjMmv2sXb4HqQ/EzTqZnaDNJHgUV93ovNa2DZvGl+vvPsNJrCTL84kvfMYkHckRfBoWx5zf+M/v2XyMmzbtlvVP/z9J3QhtjWP0h1M869H/t2k0yseBI6q6PQZTJlzTZmC1a549YHKjFJuh41bynnFCYRkz5k7lNEsmgbliT6qjj7CroK5fOhWeBlxmcI1jwEbONqgcb2k623waL+5HSx2Ta2srqqrV6+5bn/vv/+P1at/+hWuK9n5CxddbtC5c+d1Aba1jkEjAWa7cAMAGiW8YmvRfJKs4cPknQ6eJnkHT/PBl20LmukRf8cx/g7kuBQPHnU8srx8Vd25Y179xLa96qVb9qkXbzqoXviMQ6a/HcUGLRJH3rx5M/ySTRqpZYw+qn7ly+80AeAwEgju2f38cBqpVQweWwdBYlrNZTsknURybIKmJlUtPnrdmK7rB9okWo7jgmFp5Tvr3Krx1K9GfIOmbgMbJK1gVil9uTdu3DA/xzPMrl3PNuOMV3Y5HfblmDoCyMLBo8SBB/c/T73jNfeqd9z1OvX2V/2M+rVX/ax62yt+Th3Y/1y1ceMm9axn7VTbb9uuZtfPmuCx283eSfL4Wd5LDB4zy7uPWe8kSu2kPN6W8T/+Vx8JH1sLeQfyrW/+5XB+8kWb9hh2d5mwi2pVq1PX9QuoW2nnVNNOItnwoEE9JrfM/O2nPmN+xzHpB8Kl+coXj5pxxm94eZXfV/yTB/9wIHAMBAHkQx+63/WpVmff/gP6CEffdXR5ne7ZvVstPfqUdAz1rsNvVy95ce+LKXHdbtc0EsVH/3LNt775bfXQRz6mujPrXB+UJ1oA007gCbywpq0uAH+lnd7TcFLWuQ1lLbuKbahqv4w+33LvRnUe77IMboMEkKP8BcCiDsw/T506eUoWLB99jKTl8kWDR/Mj4DftD4GPQlaio4PKTqe01y4Rip+Gw45NuadrKUYrRgCGKe30noaTss5tKGvZVWxDVful2HyLF906j3dZ6t+GtOCx+E/16OBPag/lzwyO0sg0BI7jIqdiUgNg4pR1ek7D/bMU7AigbERvU6kBF8thq0hcC5SHuAljZi/h9h+mlw0ezQXGPXh2Fxt5dM11Z5gqIpwi8wvWJzqPCT56wapJOmw145sDtM3Elv8mnZxJFxguLlVhr06f8HatMzZvM9Q8FlLWqRLMp4z5lTmvCgQlEUC6qs6VrPmmDp/Q64q3pq//9JIjEzSYfASPhZR1dQ/mU9b8GnT6Ja2q7IagAdqm7LIfn1fW5WFgeNCjQdeVkKxztEGVokVtlCLMkWkegsdcyr66i7T5ZV0Ay16XCiTtsoZuCtA4SedfIBiWeu7FT9bUkRFq337KLEqYCjp4tO869n6qJ+wwH4i0wM1HdPpo4yNpvKR5VHiwXHHIvYik6ZI2q8JNAJAgfs615hxs4oYmXTSL4IKLDKaI6JaJCSUredubmsdaxQPAPILpy76wOK7MhOLdWYaNP+p8AFTP6zLS9JOXi88kCO5+Fd25UDGCx5EMu+iknQI+p0YwfXxcn2mF73glKHNRsjujDQBgiGZeJIM7W7ypDjeTcejs27/f/LUb17K73aTyF2b2qCNH/k0FfxKHlJSUtPL0d//HXJwyffig3/xISUlJSUdO77nnXnXy1Ekd7OtwX3ebwF+nks+seQxmJEhJSUmrTn35zo+UlJSUNF86TNdVNZqOQLRX1gwAAAAwPUwNo9AhYDQKtPk1v5pHAAAAtEN2zWMGah4BAADaI6vikJpHAAAAhDJrHmWwHcd909q0exNR8wgAANAeQcVhGBfqWLCXp+YRAAAAEVkVh529++R3HmUkHVWacSW1keWePXvURz/6F9ITAMZi8ZN+/2FdenP6xQ0AkM/i4qL5nccTJ08qqUMMf+vR5TODx6NHj6gnnnpKBgBA5X7sT8+6XLon3nObywEAynTu6afV4cO/OTR47JooUQSJpCZ2tP+WlpbsAAAAAEw9qXmUGNAFhCZnuHxn7759ruLRjWZqHW3gKDWPx44eJYAEMDY8tgaA+v3G4cPqpNQ8hrWOJmfzWcHj0SNHZFQAGAvfv2299qEDLgcAKJMEinffc8/Q4JFvWwMAACBkaxWHc3/bWo9oWrbD5k02cwYAAACYHkHFoXkYbXKaeSptUfMIAACAUHbNYwZqHgEAANojq+KQmkcAAACEMmse7eB42z3X1i1qHgEAANrDVByG4Z8JBnudOkfNIwAAAEK88wgAAABvpb3zSEpKSjqO1Pz494cPZqbB+KSkpKSk5aZZFYedhb371uyzbJO459o2Pyd/YeYof2EGAACgTe655151Qv7CjI4pe39lxuYzax4BAACAAMEjAAAAvBE8AgAAwJsJHs1rka4V5u0LkNIFAACAVtExoMSC9mO5PDWPAAAA8EbwCAAAAG8EjwAAAPDWte82uufZrmX7AAAAoM3CmND8DrhFzSMAAAC8ETwCAADAG8EjAAAAvLng0T7Fdq88mpb9BwAAgLaRGLAXHfZHhNQ8AgAAwBvBIwAAALwRPAIAAMBb1zzFNo+ze0+2w0fbQQoAAID2CAJC+djEda9R8wgAAAB/BI8AAADwRvAIAAAAb535hb1rmnmGbf6ZrO2em5tT9933e25UAAAAtMEDDzyoTpw8oXMd1elIY3K6pds+wePi4qKdEwAAAKba0tJSavDIY2sAAAB4G7nmcfdX73I5ABivUy/7gssBAKpCzSMAAABK0x88rrlUs9lIDwAAALSGPIgORfLUPAIAAMAbwSMAAAC8ETwCAADAmw4e5SG2fM/aMQ+4ow+5AQAA0C5BLKhT9/Jj0KbmEQAAAN4IHgEAAOCN4BEAAADeur3f8Im+9xi2AAAA0DLB+41BOBh2a9Q8AgAAwBvBIwAAALwRPAIAAMCbDR7d82zJRLK9PAAAANrFBYJ98aDuoOYRAAAA3ggeAQAA4I3gEQAAAN46c/MLa5qSv1soqTzXDrrn5ufU++67Ty0uLtqxAQAAMNWWlpbUBx94QJ149ISOFDvyUbqtOl3TpuYRAAAA/rxqHgEAANAeaTWPmcHj548ds3MBAABAK7zm7ruzH1tL0GiZ8DHSDQAAgLYZiAWlblEnvPMIAAAAbwSPAAAA8EbwCAAAAG86eLTvOA5yD7YBAADQQv0xos2tUfMIAAAAfwSPAAAA8EbwCAAAAG/d6HuNJhvpBgAAQAsF8aCkuomGh9Q8AgAAwBvBIwAAALwRPAIAAMCbDR4jD7JN1j3fBgAAQEu5WDAeElLzCAAAAG8EjwAAAPBG8AgAAABv3d5z7N6LjvFn2wAAAGif/phQd+kPNY8AAADwRvAIAAAAbwSPAAAA8GaCR/M8O3yo3f90GwAAAG0TjQclrxvXi5pHAAAAeCN4BAAAgDeCRwAAAHgjeAQAAIC3jOCRL88AAAC0V38sKF3UPAIAAMAbwSMAAAC8ETwCAADAmw4e7bNs05aWy4RZAAAAtIqNAyORoM4GXdQ8AgAAwBvBIwAAALwRPAIAAMBbX/DY/45jfxcAAABaRsLByPuOgppHAAAAeCN4BAAAgDeCRwAAAHjrCx47LrUPtsMuAAAAtFFCOEjNIwAAALwRPAIAAMAbwSMAAAC8de37jfbXe6K/4RPvAgAAAKh5BAAAgDeCRwAAAHgjeAQAAIA3GzzyeiMAAACiJD4ciBHXqHkEAACAP4JHAAAAeCN4BAAAgLdu71G2zYXdA8+4AQAA0DbxkJCaRwAAAHgjeAQAAIA3gkcAAAB463ZcxuJFRwAAAMRJjKgb/aHmEQAAAN4IHgEAAOCN4BEAAADeIr/zCAAAAKSj5hEAAADeCB4BAADgjeARAAAA3ggeAQAAMKjvx8Bdh04IHgEAAOCN4BEAAADeCB4BAADgLSF45JcfAQAAWi8pJORvWwMAAGAUBI8AAADwRvAIAAAAbwSPAAAA8JYQPPZ+BBIAAACIfnuGmkcAAAB4I3gEAACAN4JHAAAAeCN4BAAAwKAh338heAQAAIA3gkcAAAB4I3gEAACAN4JHAAAADGVffey9AEnwCAAAAG8EjwAAAPBG8AgAAABvXfMEu9cCAAAAEthYkZpHAAAAeCN4BAAAgDeCRwAAAHjrrrmM1eH1RwAAAPQJQ0OdoeYRAAAA3uy3rROrGl0tJAAAANpJgsFYQNi1PezDa5MlYgQAAGg1GzMmBYWd4LF1ZKB7CVL6XL9xQ505c8b2AAAAwNST2O/69Ruua5AOHiOBow0zg5ZavrasHjl+3OQBAAAw/ST2u7Z8zXW5OFEnLtf7wkzQQwT55ZVldfyRR1wXAAAApp3EfivLKyZvY0IXGbqk923rMHrsjXD50mX18MOfVo8//rjtBwAAgKklMZ/EfpcvX47EhsJ2SNsEjx3TLS03lktWV1fV6dOn1V9+7GO2BwAAAKaWxHwS+0kMaOiY0IWFmu2Y2b5t+wdcH6MXSFryzPvs02fVo48+qg4cOKC2bNnihgAAAGAaSI3jgw9+SB37/DF19uxZ068jQaFuTGICR5efm5tfW1P6n3zL2uYG89rWrVvUrl271Jve+Ea1d+9etW/fPrVz5047EAAAAI0i36p+5JFH1PHjx9WnHn7Y1DhevHDRDuwLGG3QaPqY4HFeB4+xYNH1sIFjpP/s7Dq1+Zmb1foN69UtG25RMzNdPcSMmiJ1YKrcU+ZfZAHjX2izNrOWtR27lhQ9rR3Hsx7mCj39atjMluxZLeeWtuaYjH+pNvAat5SF6kEyVH6OZ3n5mlpeWTHvOK6uXrfBoRnBBYph3nabPnPzCzpWlBtBPFjUHfJx3fYT6W9bYTqMGZ5XzknrWGYRudc397rm38gadk+zjknTtGQzkcHcEDCMuXmOW4FF5p+0OdtZxzExj3DHrcAiU/eRHmSGu4DQ5m1qH1UH/aLDe3kTPPYCRj3DaN6kOmM+/fmBdAgzzbgVWGTatqSqZTNbsK5F1LDIImrZR0BNzM2oDXJuZrG9U8tCc6mlHOTePQXWdcKWaeZrPtFUt6P9pDvoL9OYgS5vgke5bcl9S7fMDUw+A/nYcPlne5rPMG7KfHJO2pZl5lVoXfOqYZFFFtqw1UVF6jhX7KUZQ9Wwe4otMufUDSoGtZTZAovMvb7TtEwzSI+hUzNemEb72bzpkrzJuuHzC/LYWvdwgeGwvP300ngt5DBm+LgVWGTu9a1lM1uwrkXUsMgiC61ldduiSTvXXKGnXz2bWcNSa1nkmBdaYHFjX1eRc5GF1rWOZaZxweDAI2ozzHanPr7uDx4lMW0bOJpUZ8zHpW48O34wLIWdUS5uSeOVc5GF1nXMm9mkdS2ilvJTRMNWN7/WbOiY6Yt6GzRsM83NdtzGvMimbWPu9W3YMtMmNkN0y6xXX2DY3890Sd5kI/3mF/bqeFAu5vpWa67pLjXBoSSRYa6fTXXOfGw6jJsin5yTFlpmXoU2c8zrW8vuadYxyauW7UR16jic5uKMYdxtrDlqWN2x76OmbWPOSWspezZayyV1Sj3QbI98zDLc1kUDRMlH+pku188Ej+aWJxdJFxzagDFIo8N0xnwS0mFSBmVJnW+aAsvMK/e6FhAcp7GqYZF51XFMmrR/6lLLcWkBd5lHmhp2US3HpUFFwQYu45X7mBRa1XwTV7VIGwjGU7dnYsGi7RUbtiA1j7p7lIDRjuq63XTDmOnyyjlpHcssotD65lFo99Swg/Jqw7EsqmGri4rY+0MjuFtYc9SwumPfR23YRuECqTxyT1lgM1P3kR5khptRdC7SbVM3tQsWTV+3/Z1OR/0/gLcJgzzmL9gAAAAASUVORK5CYII=;" vertex="1" parent="1">
          <mxGeometry x="1323" y="210" width="655" height="213" as="geometry" />
        </mxCell>
      </root>
    </mxGraphModel>
  </diagram>
</mxfile>
